<?xml version="1.0" encoding="utf-8"?>
<!-- Generator: Adobe Illustrator 16.0.0, SVG Export Plug-In . SVG Version: 6.00 Build 0)  -->
<svg version="1.2" baseProfile="tiny" id="Layer_1" xmlns="http://www.w3.org/2000/svg" xmlns:xlink="http://www.w3.org/1999/xlink"
	 x="0px" y="0px"  viewBox="0 0 3000 3000" xml:space="preserve">
<g>
	<path fill="#1D1D1B" d="M706.328,1768.054c51.609-6.05,75.728-12.06,75.728-68.922v-407.833
		c-48.206-59.38-61.987-62.025-73.15-62.025v-21.463h181.573l298.574,367.496h1.711v-260.833c0-51.521-10.298-80.035-80.026-85.209
		V1207.8h185.036v21.463c-61.977,7.81-67.141,27.639-67.141,68.901v506.853h-24.049L821.626,1338.62h-1.761v344.214
		c0,61.977,18.108,78.314,81.777,85.199v21.521H706.328V1768.054z"/>
	<path fill="none" stroke="#1D1D1B" stroke-width="0.086" d="M706.328,1768.054c51.609-6.05,75.728-12.06,75.728-68.922v-407.833
		c-48.206-59.38-61.987-62.025-73.15-62.025v-21.463h181.573l298.574,367.496h1.711v-260.833c0-51.521-10.298-80.035-80.026-85.209
		V1207.8h185.036v21.463c-61.977,7.81-67.141,27.639-67.141,68.901v506.853h-24.049L821.626,1338.62h-1.761v344.214
		c0,61.977,18.108,78.314,81.777,85.199v21.521H706.328V1768.054z"/>
	<path fill="#1D1D1B" d="M1706.095,1380.738c-15.53-60.157-67.15-159.177-168.64-159.177c-44.764,0-92.144,25.869-92.144,81.797
		c0,46.387,16.396,65.321,88.731,101.488l126.462,62.853c29.232,14.636,94.682,64.564,94.682,158.361
		c0,75.679-55.15,179.912-213.452,179.912c-81.777,0-120.473-29.321-147.167-29.321c-18.04,0-22.338,15.511-25.81,29.321h-24.886
		v-212.606h24.886c17.223,86.911,67.141,184.111,176.439,184.111c103.269,0,107.566-85.151,107.566-96.374
		c0-57.63-40.465-78.266-96.373-104.961l-57.64-27.521c-147.227-70.624-147.227-144.66-147.227-184.17
		c0-52.505,26.695-169.515,190.21-169.515c68.853,0,109.318,28.337,134.252,28.337c19.811,0,24.04-12.885,28.338-29.232h25.859
		v186.688h-24.089V1380.738z"/>
	<path fill="none" stroke="#1D1D1B" stroke-width="0.086" d="M1706.095,1380.738c-15.53-60.157-67.15-159.177-168.64-159.177
		c-44.764,0-92.144,25.869-92.144,81.797c0,46.387,16.396,65.321,88.731,101.488l126.462,62.853
		c29.232,14.636,94.682,64.564,94.682,158.361c0,75.679-55.15,179.912-213.452,179.912c-81.777,0-120.473-29.321-147.167-29.321
		c-18.04,0-22.338,15.511-25.81,29.321h-24.886v-212.606h24.886c17.223,86.911,67.141,184.111,176.439,184.111
		c103.269,0,107.566-85.151,107.566-96.374c0-57.63-40.465-78.266-96.373-104.961l-57.64-27.521
		c-147.227-70.624-147.227-144.66-147.227-184.17c0-52.505,26.695-169.515,190.21-169.515c68.853,0,109.318,28.337,134.252,28.337
		c19.811,0,24.04-12.885,28.338-29.232h25.859v186.688h-24.089V1380.738z"/>
	<path fill="#1D1D1B" d="M1805.822,1207.81h487.859v172.928h-20.577c-18.935-89.479-42.226-143.646-190.22-143.646
		c-46.515,0-61.908,3.423-61.908,40.446v199.633c106.652,1.691,119.597-59.4,131.637-128.253h21.472v290.892h-21.472
		c-9.463-70.554-23.154-133.357-131.637-133.357v200.449c0,56.853,34.387,58.555,94.662,61.092v21.57h-309.816v-21.57
		c49.102-5.124,75.68-7.701,75.68-61.092v-416.538c0-56.754-35.282-58.446-75.68-61.092V1207.81z"/>
	<path fill="none" stroke="#1D1D1B" stroke-width="0.086" d="M1805.822,1207.81h487.859v172.928h-20.577
		c-18.935-89.479-42.226-143.646-190.22-143.646c-46.515,0-61.908,3.423-61.908,40.446v199.633
		c106.652,1.691,119.597-59.4,131.637-128.253h21.472v290.892h-21.472c-9.463-70.554-23.154-133.357-131.637-133.357v200.449
		c0,56.853,34.387,58.555,94.662,61.092v21.57h-309.816v-21.57c49.102-5.124,75.68-7.701,75.68-61.092v-416.538
		c0-56.754-35.282-58.446-75.68-61.092V1207.81z"/>
	<path fill="#1D1D1B" d="M1500.029,610.358c-491.331,0-889.594,398.331-889.594,889.584c0,491.282,398.263,889.603,889.594,889.603
		c491.272,0,889.584-398.321,889.584-889.603C2389.613,1008.689,1991.302,610.358,1500.029,610.358 M1500.029,2371.653
		c-481.426,0-871.761-390.227-871.761-871.643c0-481.485,390.335-871.711,871.761-871.711
		c481.416,0,871.633,390.226,871.633,871.711C2371.662,1981.427,1981.445,2371.653,1500.029,2371.653"/>
	<path fill="none" stroke="#1D1D1B" stroke-width="0.086" d="M1500.029,610.358c-491.331,0-889.594,398.331-889.594,889.584
		c0,491.282,398.263,889.603,889.594,889.603c491.272,0,889.584-398.321,889.584-889.603
		C2389.613,1008.689,1991.302,610.358,1500.029,610.358z M1500.029,2371.653c-481.426,0-871.761-390.227-871.761-871.643
		c0-481.485,390.335-871.711,871.761-871.711c481.416,0,871.633,390.226,871.633,871.711
		C2371.662,1981.427,1981.445,2371.653,1500.029,2371.653z"/>
	<path fill="#1D1D1B" d="M2570.577,1360.437c-8.026-21.197-15.521-42.502-22.239-64.132c-4.072-40.829-4.299-81.167-3.413-116.518
		c14.636-75.846,69.413-115.968,135.177-140.616c-7.603-19.318-17.174-42.158-23.724-58.122
		c-70.938,34.437-156.256,40.564-220.427-20.095c-13.711-14.41-27.088-29.232-39.954-44.42
		c-21.374-38.685-38.321-78.924-52.022-114.363c-15.453-75.62,19.829-133.623,71.056-181.741
		c-14.41-14.794-31.968-32.302-44.125-44.519c-52.406,58.889-128.901,97.26-211.396,65.823
		c-15.797-7.102-31.427-14.43-46.908-22.171c-36.04-28.347-68.469-60.275-95.656-88.779c-43.21-63.955-32.862-130.997-3.806-195.01
		c-18.984-8.144-41.941-17.666-57.856-24.216c-25.849,74.41-81.826,139.092-170.065,141.669
		c-26.951-0.768-53.833-2.253-80.734-5.115c-34.229-11.223-66.708-24.659-95.282-37.259
		c-64.446-42.492-80.528-108.433-78.256-178.662c-20.655-0.275-45.403-0.334-62.626-0.275
		c4.623,78.649-22.396,159.885-102.925,195.993c-18.609,7.043-37.387,13.761-56.321,19.869
		c-43.849,4.898-87.334,5.114-125.252,4.239c-75.787-14.695-115.859-69.462-140.617-135.177
		c-19.229,7.593-42.177,17.115-57.963,23.666c34.337,70.948,40.396,156.314-20.145,220.485
		c-16.239,15.364-32.932,30.275-50.086,44.636c-37.77,20.577-76.849,36.975-111.285,50.243
		c-75.629,15.531-133.643-19.751-181.691-71.046c-14.862,14.42-32.36,31.967-44.518,44.145
		c58.928,52.396,97.249,128.892,65.764,211.406c-7.643,17.174-15.688,34.278-24.275,51.138
		c-27.128,33.787-57.285,64.22-84.305,89.931c-63.905,43.19-130.987,32.843-195.011,3.847c-8.134,19.052-17.665,41.95-24.216,57.796
		c74.469,25.859,139.141,81.836,141.669,170.115c-0.659,23.449-1.869,46.839-4.072,70.229
		c-11.833,38.43-26.754,74.911-40.78,106.672c-42.482,64.396-108.482,80.41-178.712,78.147c-0.206,20.646-0.266,45.522-0.206,62.647
		c78.59-4.574,159.826,22.445,195.935,102.974c7.259,19.092,14.095,38.36,20.36,57.904c4.839,43.545,5.065,86.794,4.131,124.437
		c-14.587,75.787-69.413,115.918-135.177,140.626c7.643,19.279,17.056,42.157,23.725,58.004
		c70.997-34.279,156.256-40.446,220.485,20.213c15.128,15.846,29.764,32.242,43.918,49.141
		c20.479,37.643,36.816,76.437,50.036,110.794c15.511,75.629-19.761,133.643-71.115,181.633
		c14.489,14.862,31.978,32.36,44.145,44.469c52.387-58.84,128.892-97.142,211.406-65.725c18.433,8.271,36.541,16.839,54.531,26.085
		c33.57,27.079,63.737,57.02,89.341,83.823c43.19,63.836,32.843,130.996,3.846,194.94c19.004,8.263,41.883,17.676,57.729,24.275
		c25.879-74.399,81.964-139.141,170.184-141.659c22.515,0.601,45.078,1.811,67.604,3.846c40.387,12.06,78.807,27.64,111.943,42.384
		c64.456,42.551,80.459,108.541,78.148,178.712c20.734,0.266,45.511,0.266,62.685,0.266
		c-4.563-78.698,22.456-159.886,102.983-196.043c21.306-8.085,42.816-15.639,64.722-22.396c40.741-4.014,80.911-4.181,116.125-3.354
		c75.846,14.637,115.858,69.403,140.685,135.217c19.2-7.643,42.158-17.174,58.023-23.705
		c-34.348-71.007-40.584-156.364,20.075-220.544c16.229-15.374,32.862-30.207,50.036-44.577
		c35.99-19.151,72.865-34.623,105.62-47.292c75.619-15.512,133.623,19.771,181.672,71.065c14.823-14.43,32.36-31.918,44.528-44.134
		c-58.889-52.348-97.26-128.893-65.813-211.407c10.229-22.898,21.167-45.521,33.118-67.81
		c25.367-30.492,52.672-58.072,77.508-81.688c63.944-43.249,130.987-32.843,195.049-3.905c8.086-18.983,17.607-41.882,24.217-57.846
		c-74.41-25.81-139.141-81.776-141.728-170.006c0.728-24.816,2.046-49.525,4.515-74.312c11.508-36.374,25.712-70.889,39.078-101.046
		c42.551-64.338,108.482-80.459,178.722-78.147c0.325-20.734,0.325-45.473,0.325-62.696
		C2687.911,1467.974,2606.734,1441.003,2570.577,1360.437 M2515.269,1397.243l-10.682,13.82
		c-21.246,20.694-55.249,13.761-82.997,11.508c-18.227-4.515-36.423-8.744-54.531-13.043c2.469,23.705,3.896,47.823,4.396,72.099
		c0.443,0.207,0.876,0.502,1.309,0.777c4.741,10.338,3.364,17.764-1.21,23.823c-0.157,25.328-1.367,50.479-3.679,75.345
		c21.964-5.439,44.145-10.161,66.492-14.095c23.449-2.302,49.043-4.564,65.94,13.73c19.259,32.292,12.433,84.698,8.567,121.908
		c-0.206,2.351-0.551,4.683-0.935,7.033c-6.216,27.974-13.977,56.646-29.056,82.239l-15.068,8.744
		c-27.64,10.957-56.42-8.469-81.188-21.187c-15.363-11.321-30.943-22.396-46.337-33.57c-6.718,23.174-14.479,45.855-23.065,68.144
		c0.433,0.659,0.934,1.26,1.377,1.968c0.501,11.95-4.072,18.334-11.174,22.131c-9.679,23.065-20.371,45.512-31.978,67.524
		c22.613,3.433,45.177,7.564,67.643,12.561c22.456,6.816,46.938,14.479,55.584,37.908c5.449,37.21-20.98,82.997-38.705,115.968
		c-0.551,0.934-1.142,1.928-1.692,2.872c-17.901,25.858-37.317,52.505-63.511,72.363l-17.36,2.203
		c-29.666-0.324-48.807-29.39-66.866-50.587c-10.013-16.603-20.263-33.02-30.334-49.416c-15.069,18.492-30.876,36.442-47.381,53.616
		c0.275,1.142,0.62,2.351,0.886,3.561c-4.397,12.099-11.893,16.014-20.597,16.229c-17.606,17.224-35.872,33.688-54.807,49.328
		c20.026,12.108,39.619,24.768,58.829,38.243c18.227,14.872,37.928,31.327,36.944,56.321c-8.587,33.728-45.079,63.776-73.427,86.842
		c-28.071,18.118-57.963,37.151-91.986,46.072l-16.78-4.623c-27.345-11.725-33.964-45.786-42.551-72.324
		c-2.853-19.161-5.98-38.252-9.02-57.236c-20.971,11.381-42.423,21.915-64.338,31.643c-0.217,1.092-0.384,2.253-0.551,3.354
		c-8.587,9.314-16.78,10.249-24.886,7.328c-22.682,9.187-45.895,17.557-69.561,24.826c13.771,18.648,26.971,37.75,39.531,57.394
		c11.007,20.754,22.938,43.544,12.502,66.157c-20.99,28.072-66.777,41.95-101.941,52.406c-33.187,6.05-68.469,12.433-103.751,7.584
		l-13.711-10.731c-20.734-21.246-13.81-55.249-11.489-82.957c4.623-18.748,8.912-37.476,13.357-56.135
		c-23.605,2.42-47.43,3.974-71.537,4.524c-0.561,0.876-1.15,1.81-1.722,2.686c-11.321,5.232-19.2,3.078-25.534-2.528
		c-24.865-0.226-49.574-1.485-73.908-3.747c5.508,22.445,10.396,45.128,14.42,67.918c2.252,23.449,4.613,48.974-13.811,65.931
		c-29.291,17.509-75.078,13.427-111.176,9.748c-34.584-7.446-71.784-14.872-104.253-33.915l-8.587-15.068
		c-11.007-27.591,8.38-56.361,21.138-81.069c11.272-15.354,22.338-30.836,33.452-46.181c-23.065-6.875-45.787-14.694-67.967-23.331
		c-0.659,0.434-1.387,0.984-2.046,1.437c-12.147,0.481-18.659-4.249-22.388-11.509c-22.897-9.797-45.344-20.527-67.199-32.193
		c-3.482,22.741-7.604,45.512-12.729,68.145c-6.718,22.495-14.409,46.997-37.868,55.584c-30.708,4.524-67.142-12.649-97.466-28.801
		c-30.374-21.078-64.063-42.757-88.063-74.399l-2.145-17.223c0.384-29.725,29.322-48.876,50.519-66.816
		c16.131-9.797,32.046-19.643,47.892-29.439c-18.708-15.207-36.698-31.102-54.108-47.774c-0.501,0.118-0.983,0.207-1.476,0.325
		c-10.691-3.905-15.029-10.229-16.013-17.725c-17.675-17.833-34.573-36.492-50.646-55.918
		c-11.715,19.426-24.05,38.459-37.132,57.128c-14.94,18.226-31.377,37.869-56.36,36.816c-31.81-8.017-60.384-41.046-82.898-68.637
		c-19.81-30.718-42.157-63.344-52.003-101.095l4.573-16.79c11.715-27.354,45.787-33.905,72.256-42.423
		c18.384-2.765,36.659-5.853,54.876-8.754c-11.391-21.188-21.856-42.886-31.485-65.007c-0.374-0.108-0.758-0.108-1.092-0.207
		c-8.135-7.544-9.915-14.872-8.203-21.964c-9.354-23.39-17.774-47.281-25.151-71.547c-18.266,13.377-36.993,26.312-56.193,38.527
		c-20.744,11.125-43.426,22.947-66.157,12.492c-24.669-18.374-38.312-55.859-48.384-88.555
		c-6.669-37.366-15.797-77.882-10.239-118.484l10.623-13.771c21.246-20.695,55.367-13.741,82.997-11.509
		c18.049,4.407,36.098,8.656,54.098,12.944c-2.252-23.773-3.58-47.773-3.954-72.049c-0.383-0.275-0.767-0.502-1.16-0.708
		c-4.84-10.417-3.403-17.961,1.16-23.961c0.325-25.377,1.761-50.567,4.229-75.345c-22.239,5.449-44.577,10.229-67.141,14.203
		c-23.39,2.302-48.974,4.613-65.931-13.771c-18.709-31.475-12.719-81.943-8.813-118.938c6.718-31.544,14.479-64.554,31.594-93.776
		l15.078-8.646c27.63-11.006,56.41,8.381,81.128,21.138c15.688,11.449,31.416,22.731,47.056,34.072
		c6.925-22.849,14.686-45.305,23.439-67.367c-0.757-1.111-1.643-2.145-2.42-3.305c-0.551-13.2,5.125-19.643,13.495-23.223
		c9.797-22.516,20.41-44.577,32.026-66.04c-23.439-3.472-46.78-7.771-69.885-12.885c-22.564-6.826-47.115-14.528-55.702-37.978
		c-4.298-29.321,11.223-64.013,26.695-93.452c21.295-30.758,43.259-64.997,75.227-89.223l17.341-2.193
		c29.616,0.394,48.776,29.321,66.767,50.518c9.965,16.505,20.193,32.912,30.266,49.259c15.089-18.541,30.876-36.491,47.381-53.822
		c-0.207-0.983-0.482-2.085-0.768-3.128c4.348-11.784,11.567-15.855,20.046-16.239c17.606-17.282,35.921-33.847,54.925-49.594
		c-19.879-11.99-39.354-24.6-58.406-37.908c-18.227-14.98-37.918-31.426-36.925-56.36c8.134-32.086,41.606-60.866,69.285-83.439
		c30.935-19.918,63.737-42.541,101.872-52.446l16.79,4.515c27.246,11.715,33.905,45.797,42.384,72.314
		c2.862,18.936,6.049,37.702,9.029,56.479c20.961-11.282,42.492-21.698,64.515-31.27c0.167-0.935,0.266-1.986,0.433-2.921
		c8.42-9.138,16.564-10.19,24.482-7.485c22.908-9.068,46.338-17.223,70.18-24.433c-13.81-18.758-27.127-37.908-39.688-57.679
		c-11.057-20.744-22.948-43.466-12.492-66.147c18.059-24.217,54.551-37.761,86.793-47.773
		c37.643-6.659,78.541-16.132,119.489-10.456l13.761,10.672c20.695,21.187,13.75,55.318,11.488,83.056
		c-4.564,18.541-8.793,37.092-13.2,55.534c23.548-2.262,47.38-3.629,71.439-4.022c0.501-0.935,1.092-1.81,1.643-2.646
		c11.391-5.331,19.318-3.127,25.643,2.646c24.886,0.344,49.604,1.761,73.928,4.072c-5.547-22.555-10.456-45.403-14.479-68.459
		c-2.42-23.391-4.691-48.984,13.652-65.941c32.312-19.21,84.649-12.324,121.908-8.527c7.997,0.816,15.797,2.046,23.509,3.413
		c22.839,5.773,45.698,13.21,66.501,25.426l8.686,15.089c11.075,27.57-8.41,56.41-21.128,81.118
		c-12.217,16.622-24.108,33.363-36.217,49.878c22.633,6.768,44.804,14.302,66.551,22.771c2.076-1.534,4.181-3.02,6.275-4.563
		c15.129-0.6,21.453,6.895,24.601,17.292c21.855,9.521,43.318,19.928,64.22,31.102c3.58-24.384,7.997-48.659,13.328-72.876
		c6.807-22.515,14.459-47.006,37.957-55.583c27.039-3.964,58.574,8.911,86.479,23.065c32.686,23.321,71.164,46.171,97.682,81.167
		l2.214,17.341c-0.384,29.686-29.331,48.768-50.538,66.816c-16.947,10.19-33.619,20.646-50.281,30.876
		c18.432,15.029,36.373,30.669,53.547,47.065c1.476-0.394,2.971-0.777,4.456-1.102c12.491,4.613,16.278,12.384,16.278,21.561
		c17.056,17.4,33.403,35.508,49.043,54.285c12.108-20.213,24.875-39.964,38.42-59.282c14.911-18.226,31.357-37.819,56.301-36.925
		c29.282,7.378,55.762,35.765,77.272,61.702c20.646,32.469,45.285,66.758,55.751,106.928l-4.574,16.79
		c-11.783,27.354-45.836,33.905-72.324,42.434c-18.659,2.813-37.199,5.95-55.633,8.921c11.508,21.079,22.014,42.708,31.751,64.771
		c0.501,0.177,1.042,0.227,1.594,0.295c8.38,7.751,9.983,15.236,8.036,22.564c9.413,23.163,17.94,46.839,25.367,70.938
		c18.266-13.367,37.003-26.312,56.203-38.459c20.695-11.184,43.416-23.017,66.167-12.561c27.787,20.694,41.606,65.773,52.003,100.78
		C2513.676,1326.08,2520.227,1361.646,2515.269,1397.243"/>
	<rect x="233.321" y="231.925" fill="none" width="2533.317" height="2536.18"/>
</g>
</svg>
